HIERARCHY
ROOT Hips
{
  OFFSET -43.3411 73.6987 0
  CHANNELS 6 Xposition Yposition Zposition Zrotation Xrotation Yrotation
  JOINT Bip01_Pelvis
  {
    OFFSET 0 0 0
    CHANNELS 6 Xposition Yposition Zposition Zrotation Xrotation Yrotation
    JOINT BN_Tail_01
    {
      OFFSET -18.6385 -9.591 -2.032e-005
      CHANNELS 6 Xposition Yposition Zposition Zrotation Xrotation Yrotation
      JOINT BN_Tail_02
      {
        OFFSET 20.9743 0 0
        CHANNELS 6 Xposition Yposition Zposition Zrotation Xrotation Yrotation
        JOINT BN_Tail_03
        {
          OFFSET 20.3015 0 0
          CHANNELS 6 Xposition Yposition Zposition Zrotation Xrotation Yrotation
          JOINT BN_Tail_04
          {
            OFFSET 21.6394 -9.91821e-005 0
            CHANNELS 6 Xposition Yposition Zposition Zrotation Xrotation Yrotation
            End Site
            {
              OFFSET 0 0 0
            }
          }
        }
      }
    }
    JOINT Bip01_Spine
    {
      OFFSET 22.1878 -0.659386 3.048e-005
      CHANNELS 6 Xposition Yposition Zposition Zrotation Xrotation Yrotation
      JOINT Bip01_R_Thigh
      {
        OFFSET -22.1873 0.677109 -17.1024
        CHANNELS 6 Xposition Yposition Zposition Zrotation Xrotation Yrotation
        JOINT Bip01_R_Calf
        {
          OFFSET 34.2647 0 0
          CHANNELS 6 Xposition Yposition Zposition Zrotation Xrotation Yrotation
          JOINT Bip01_R_HorseLink
          {
            OFFSET 20.4429 0 0
            CHANNELS 6 Xposition Yposition Zposition Zrotation Xrotation Yrotation
            JOINT Bip01_R_Foot
            {
              OFFSET 16.5673 0 0
              CHANNELS 6 Xposition Yposition Zposition Zrotation Xrotation Yrotation
              JOINT Bip01_R_Toe0
              {
                OFFSET 9.18784 6.94841 0
                CHANNELS 6 Xposition Yposition Zposition Zrotation Xrotation Yrotation
                JOINT Bip01_R_Toe0Nub
                {
                  OFFSET 1.01907 0 0
                  CHANNELS 6 Xposition Yposition Zposition Zrotation Xrotation Yrotation
                  End Site
                  {
                    OFFSET 0 0 0
                  }
                }
              }
            }
          }
        }
      }
      JOINT Bip01_L_Thigh
      {
        OFFSET -22.1873 0.67701 17.1024
        CHANNELS 6 Xposition Yposition Zposition Zrotation Xrotation Yrotation
        JOINT Bip01_L_Calf
        {
          OFFSET 34.2647 0 0
          CHANNELS 6 Xposition Yposition Zposition Zrotation Xrotation Yrotation
          JOINT Bip01_L_HorseLink
          {
            OFFSET 20.4429 0 0
            CHANNELS 6 Xposition Yposition Zposition Zrotation Xrotation Yrotation
            JOINT Bip01_L_Foot
            {
              OFFSET 16.5673 0 0
              CHANNELS 6 Xposition Yposition Zposition Zrotation Xrotation Yrotation
              JOINT Bip01_L_Toe0
              {
                OFFSET 9.18784 6.9484 1.14441e-005
                CHANNELS 6 Xposition Yposition Zposition Zrotation Xrotation Yrotation
                JOINT Bip01_L_Toe0Nub
                {
                  OFFSET 1.01907 0 0
                  CHANNELS 6 Xposition Yposition Zposition Zrotation Xrotation Yrotation
                  End Site
                  {
                    OFFSET 0 0 0
                  }
                }
              }
            }
          }
        }
      }
      JOINT Bip01_Spine1
      {
        OFFSET 39.3372 -0.0249863 0
        CHANNELS 6 Xposition Yposition Zposition Zrotation Xrotation Yrotation
        JOINT Bip01_Neck
        {
          OFFSET 34.2837 -15.5934 -4.318e-005
          CHANNELS 6 Xposition Yposition Zposition Zrotation Xrotation Yrotation
          JOINT Bip01_R_Clavicle
          {
            OFFSET -17.9452 -11.3131 -6.19287
            CHANNELS 6 Xposition Yposition Zposition Zrotation Xrotation Yrotation
            JOINT Bip01_R_UpperArm
            {
              OFFSET 17.4439 1.52588e-005 -2.28882e-005
              CHANNELS 6 Xposition Yposition Zposition Zrotation Xrotation Yrotation
              JOINT Bip01_R_Forearm
              {
                OFFSET 30.6251 1.14441e-005 0
                CHANNELS 6 Xposition Yposition Zposition Zrotation Xrotation Yrotation
                JOINT Bip01_R_Hand
                {
                  OFFSET 31.2039 0 0
                  CHANNELS 6 Xposition Yposition Zposition Zrotation Xrotation Yrotation
                  JOINT Bip01_R_Finger0
                  {
                    OFFSET 22.1039 0.255862 -0.37902
                    CHANNELS 6 Xposition Yposition Zposition Zrotation Xrotation Yrotation
                    JOINT Bip01_R_Finger0Nub
                    {
                      OFFSET 12.0552 0 0
                      CHANNELS 6 Xposition Yposition Zposition Zrotation Xrotation Yrotation
                      End Site
                      {
                        OFFSET 0 0 0
                      }
                    }
                  }
                }
              }
            }
          }
          JOINT Bip01_L_Clavicle
          {
            OFFSET -17.9452 -11.3132 6.19281
            CHANNELS 6 Xposition Yposition Zposition Zrotation Xrotation Yrotation
            JOINT Bip01_L_UpperArm
            {
              OFFSET 17.444 0 1.14441e-005
              CHANNELS 6 Xposition Yposition Zposition Zrotation Xrotation Yrotation
              JOINT Bip01_L_Forearm
              {
                OFFSET 30.6251 0 0
                CHANNELS 6 Xposition Yposition Zposition Zrotation Xrotation Yrotation
                JOINT Bip01_L_Hand
                {
                  OFFSET 31.204 0 0
                  CHANNELS 6 Xposition Yposition Zposition Zrotation Xrotation Yrotation
                  JOINT Bip01_L_Finger0
                  {
                    OFFSET 22.1039 0.255856 0.379024
                    CHANNELS 6 Xposition Yposition Zposition Zrotation Xrotation Yrotation
                    JOINT Bip01_L_Finger0Nub
                    {
                      OFFSET 12.0552 0 0
                      CHANNELS 6 Xposition Yposition Zposition Zrotation Xrotation Yrotation
                      End Site
                      {
                        OFFSET 0 0 0
                      }
                    }
                  }
                }
              }
            }
          }
          JOINT Bip01_Neck1
          {
            OFFSET 14.9359 -0.0106278 0
            CHANNELS 6 Xposition Yposition Zposition Zrotation Xrotation Yrotation
            JOINT Bip01_Head
            {
              OFFSET 14.3578 0.505501 0
              CHANNELS 6 Xposition Yposition Zposition Zrotation Xrotation Yrotation
              JOINT BN_Ear_L_01
              {
                OFFSET 3.76994 -2.35629 12.3444
                CHANNELS 6 Xposition Yposition Zposition Zrotation Xrotation Yrotation
                End Site
                {
                  OFFSET 0 0 0
                }
              }
              JOINT BN_Ear_R_01
              {
                OFFSET 3.76995 -2.35622 -12.3442
                CHANNELS 6 Xposition Yposition Zposition Zrotation Xrotation Yrotation
                End Site
                {
                  OFFSET 0 0 0
                }
              }
              JOINT BN_Mouth_01
              {
                OFFSET 11.8395 10.8645 1.27e-005
                CHANNELS 6 Xposition Yposition Zposition Zrotation Xrotation Yrotation
                JOINT BN_Tongue_01
                {
                  OFFSET 9.73752 3.21674 1.016e-005
                  CHANNELS 6 Xposition Yposition Zposition Zrotation Xrotation Yrotation
                  JOINT BN_Tongue_02
                  {
                    OFFSET 9.04304 0.053505 0
                    CHANNELS 6 Xposition Yposition Zposition Zrotation Xrotation Yrotation
                    End Site
                    {
                      OFFSET 0 0 0
                    }
                  }
                }
                JOINT BN_Beard_01
                {
                  OFFSET 6.93466 -0.751793 0
                  CHANNELS 6 Xposition Yposition Zposition Zrotation Xrotation Yrotation
                  JOINT BN_Beard_02
                  {
                    OFFSET 13.0965 1.52588e-005 0
                    CHANNELS 6 Xposition Yposition Zposition Zrotation Xrotation Yrotation
                    End Site
                    {
                      OFFSET 0 0 0
                    }
                  }
                }
              }
              JOINT Bip01_HeadNub
              {
                OFFSET 25.6158 0 0
                CHANNELS 6 Xposition Yposition Zposition Zrotation Xrotation Yrotation
                End Site
                {
                  OFFSET 0 0 0
                }
              }
            }
          }
        }
      }
    }
  }
}
MOTION
Frames:	4
Frame Time:	0.0333333
-41.133 70.9423 -0.761718 91.3696 -85.3315 -173.31 -7.62939e-006 -4.44089e-016 0 -88.3121 9.53927 -89.0118 -18.6385 -9.591 -6.21601e-007 -54.0081 2.69903 -174.913 20.9743 1.37845e-012 -0.000670075 13.4435 3.79436 -13.485 20.3015 1.42109e-014 -8.88179e-015 16.1974 -3.5218 -25.6054 21.6394 -7.6294e-006 -9.53672e-007 6.24303 -10.1762 -48.9843 21.9854 3.02922 0.397027 6.65187 -2.26764 4.69783 -20.6843 0.184237 -19.2568 -97.3888 -4.78639 179.733 34.2647 -3.8147e-006 3.8147e-006 -63.1337 4.92764e-006 9.40947e-006 20.4429 3.8147e-006 -1.90735e-006 65.4948 8.42378e-006 5.15464e-006 16.5673 -3.8147e-006 -5.72205e-006 -4.50949 9.64745 -0.787521 9.18819 6.94795 -0.00140765 89.6852 1.50117 -0.0542308 1.01906 2.38418e-007 0 4.0389e-008 1.68874e-008 -5.56719e-007 -23.4739 -1.08371 14.8104 -110.469 14.9453 -173.969 34.2647 5.72205e-006 -3.8147e-006 -63.5824 3.41209e-006 1.00835e-005 20.4429 7.6294e-006 -1.90735e-006 65.3929 1.35735e-005 -6.86947e-006 16.5673 3.8147e-006 1.90735e-006 -15.6878 -0.706444 0.451475 9.18783 6.9484 1.88359e-006 89.2083 -1.71052 0.0652675 1.01907 -3.90799e-014 3.8147e-006 -179.96 -0.000100015 9.92145e-005 39.3331 -0.0246582 0.000215828 -6.63537 -2.4617 -15.7672 34.2801 -15.593 -3.29858e-005 -9.45887 -7.91919 -6.43958 -15.9536 -13.87 -6.43503 -178.234 -56.1256 74.0813 17.4439 1.52588e-005 3.8147e-006 32.7667 49.69 -67.7992 30.6251 -7.15256e-007 -5.72204e-006 -53.0958 5.68483e-006 1.0251e-005 31.2039 1.90735e-006 5.72204e-006 155.802 77.6259 -150.742 22.1039 0.255845 -0.379022 -7.79156 15.0087 -34.1073 12.0552 -1.42109e-014 1.90734e-006 179.96 -1.1885e-005 -1.00561e-005 -14.5777 -15.5768 5.75502 -166.967 35.9816 -107.712 17.4439 -7.6294e-006 -1.14441e-005 29.6174 -33.1367 74.2931 30.6251 5.72205e-006 7.10542e-015 -57.9733 -9.11147e-006 -1.4932e-005 31.204 4.26326e-014 -7.10542e-015 -111.529 -80.1894 -112.28 22.1039 0.255826 0.379054 -10.3673 -2.75912 27.5639 12.0552 -1.90735e-006 -7.81595e-014 -1.00569e-005 1.00714e-005 9.26155e-006 14.9375 -0.0103912 -0.000139713 -5.1138 19.471 -21.8942 14.3578 0.505471 -4.86824e-007 -27.6484 10.7155 -6.03919 3.7699 -2.35627 12.3444 -163.395 19.9472 -76.8216 3.76994 -2.35622 -12.3442 0.221752 43.2553 130.435 11.8396 10.8645 -1.87163e-008 -149.783 -3.60463 -177.883 9.73753 3.21678 -1.96748e-007 -7.22674 3.7595e-006 2.00945e-007 5.32519 0.859623 -0.288865 -8.23336 4.1663e-006 -8.66946e-007 6.93466 -0.751786 4.59817e-008 -74.7658 64.6043 -38.0159 13.0965 1.52588e-005 -5.96047e-007 -18.5514 0.276068 -2.65878 25.6158 7.6294e-006 7.10543e-015 8.7571e-009 4.737e-008 -6.03498e-008 
-41.1265 70.9322 -0.761718 91.4331 -85.3263 -173.259 -7.62939e-006 8.88178e-016 7.10543e-015 -88.3126 9.50937 -88.791 -18.6385 -9.591 -6.20863e-007 -53.7869 2.82702 -172.719 20.9743 1.06581e-012 -0.000670075 13.6431 3.4806 -12.5395 20.3015 2.84217e-014 -6.43929e-015 16.4467 -3.89591 -26.4863 21.6394 -7.6294e-006 -9.53672e-007 6.25653 -9.98984 -50.4522 21.9853 3.01833 0.480528 6.56097 -2.29729 4.49594 -20.7425 0.17099 -19.2686 -97.4151 -4.76931 179.736 34.2647 -3.8147e-006 3.8147e-006 -63.2506 4.90891e-006 9.41931e-006 20.4429 3.8147e-006 -1.90735e-006 65.5391 8.42736e-006 5.14847e-006 16.5673 -3.8147e-006 -5.72205e-006 -4.51746 9.6502 -0.798618 9.18819 6.94795 -0.00140765 89.6822 1.50118 -0.0541527 1.01906 2.38418e-007 0 4.0389e-008 1.68874e-008 -5.56719e-007 -23.4134 -1.11193 14.8077 -110.314 14.9623 -173.971 34.2647 5.72205e-006 -3.8147e-006 -63.5763 3.01876e-006 1.02808e-005 20.4429 7.6294e-006 -1.90735e-006 65.4831 5.2711e-006 -1.06713e-005 16.5673 3.8147e-006 1.90735e-006 -15.6966 -0.703118 0.439688 9.18783 6.9484 1.88406e-006 89.2077 -1.71013 0.0652532 1.01907 6.88339e-015 3.8147e-006 -179.96 -0.000100015 9.92144e-005 39.3331 -0.0246582 0.000215828 -6.70821 -2.44341 -15.7525 34.2801 -15.593 -3.29839e-005 -9.40012 -8.13131 -6.43416 -15.9746 -13.8234 -6.48241 -178.331 -56.3884 73.9948 17.4439 1.52588e-005 3.8147e-006 32.6659 49.7406 -67.6248 30.6251 -7.15256e-007 -5.72204e-006 -52.947 5.22641e-006 1.05888e-005 31.2039 1.90735e-006 5.72204e-006 155.787 77.6084 -150.734 22.1039 0.255845 -0.379022 -7.76193 15.0211 -33.9914 12.0552 -1.77636e-014 1.90734e-006 179.96 -1.1885e-005 -1.00561e-005 -14.6002 -15.5755 5.70134 -167.076 35.7848 -107.655 17.4439 -7.6294e-006 -1.14441e-005 29.6298 -33.1937 74.3054 30.6251 5.72205e-006 2.4869e-014 -57.6414 -9.19821e-006 -1.48783e-005 31.204 6.39489e-014 -1.06581e-014 -111.851 -80.2336 -112.43 22.1039 0.255826 0.379054 -10.3676 -2.76185 27.6027 12.0552 -1.90735e-006 -6.75014e-014 -1.00569e-005 1.00714e-005 9.26155e-006 14.9375 -0.0103912 -0.000139713 -5.05325 19.7499 -22.0624 14.3578 0.505471 -4.86851e-007 -27.4581 10.6413 -5.64172 3.7699 -2.35627 12.3444 -163.944 19.3828 -76.5845 3.76994 -2.35622 -12.3442 0.404004 43.071 130.224 11.8396 10.8645 -1.71192e-008 -149.72 -3.58254 -177.811 9.73753 3.21678 -2.01873e-007 -7.30236 3.81552e-006 -8.04836e-007 5.32828 0.86668 -0.291348 -8.19223 4.10879e-006 1.07574e-007 6.93466 -0.751786 4.71795e-008 -71.1893 63.5009 -41.8677 13.0965 1.52588e-005 -5.96047e-007 -16.4703 0.568514 -3.10797 25.6158 7.6294e-006 -7.10543e-015 8.7571e-009 4.737e-008 -6.03498e-008 
-41.1231 70.9234 -0.761718 91.4847 -85.3209 -173.221 -7.62939e-006 4.44089e-016 7.10543e-015 -88.3175 9.48414 -88.5722 -18.6385 -9.591 -6.20144e-007 -53.553 2.94013 -170.699 20.9743 8.38441e-013 -0.000670075 13.8693 3.14741 -11.5354 20.3015 2.84217e-014 -7.10543e-015 16.6219 -4.19871 -27.1637 21.6394 -7.6294e-006 -9.53672e-007 6.27239 -9.82588 -51.728 21.9851 3.00734 0.564853 6.46985 -2.32649 4.29254 -20.8013 0.157622 -19.2805 -97.442 -4.75201 179.74 34.2647 -3.8147e-006 3.8147e-006 -63.3654 4.89033e-006 9.42903e-006 20.4429 3.8147e-006 -1.90735e-006 65.5846 -6.90884e-007 1.00104e-006 16.5673 -3.8147e-006 -5.72205e-006 -4.54296 9.65083 -0.807621 9.18819 6.94795 -0.00140764 89.6792 1.50118 -0.0540754 1.01906 2.38418e-007 3.55271e-015 4.0389e-008 1.68874e-008 -5.56719e-007 -23.3523 -1.14052 14.8049 -110.158 14.9835 -173.976 34.2647 5.72205e-006 -3.8147e-006 -63.5661 3.41776e-006 1.00839e-005 20.4429 7.6294e-006 -1.90735e-006 65.5743 4.42125e-006 -1.10585e-005 16.5673 3.8147e-006 1.90735e-006 -15.7087 -0.699311 0.428078 9.18783 6.9484 1.88463e-006 89.207 -1.70973 0.0652393 1.01907 -3.4861e-014 3.8147e-006 -179.96 -0.000100015 9.92144e-005 39.3331 -0.0246582 0.000215828 -6.78186 -2.42484 -15.7376 34.2801 -15.593 -3.29821e-005 -9.3328 -8.34586 -6.42989 -15.9965 -13.7753 -6.53045 -178.444 -56.6563 73.9086 17.4439 1.52588e-005 3.8147e-006 32.5653 49.7909 -67.4519 30.6251 -7.15256e-007 -5.72204e-006 -52.7893 5.72632e-006 1.02037e-005 31.2039 1.90735e-006 5.72204e-006 155.769 77.5907 -150.725 22.1039 0.255845 -0.379022 -7.73202 15.0336 -33.8744 12.0552 1.42109e-014 1.90734e-006 179.96 -1.1885e-005 -1.0056e-005 -14.6237 -15.5734 5.64686 -167.194 35.5828 -107.602 17.4439 -7.6294e-006 -1.14441e-005 29.6412 -33.2527 74.318 30.6251 5.72205e-006 1.42108e-014 -57.3033 -9.28627e-006 -1.48228e-005 31.204 2.4869e-014 -3.55271e-015 -112.177 -80.278 -112.584 22.1039 0.255826 0.379054 -10.3679 -2.76464 27.6404 12.0552 -1.90735e-006 -5.32906e-014 -1.00569e-005 1.00714e-005 9.26155e-006 14.9375 -0.0103912 -0.000139713 -4.98848 20.025 -22.24 14.3578 0.505471 -4.86862e-007 -27.2504 10.5648 -5.25031 3.7699 -2.35627 12.3444 -164.494 18.8107 -76.3515 3.76994 -2.35622 -12.3442 0.58662 42.8844 130.012 11.8396 10.8645 -1.45711e-008 -149.697 -3.55935 -177.749 9.73753 3.21678 -2.06379e-007 -7.38009 3.86936e-006 1.18061e-006 5.33141 0.87381 -0.29385 -8.15068 2.48951e-006 8.99061e-006 6.93466 -0.751786 4.82324e-008 -67.8916 62.2947 -45.444 13.0965 1.52588e-005 -5.96047e-007 -14.3662 0.847013 -3.57217 25.6158 7.6294e-006 -2.13163e-014 8.75709e-009 4.73701e-008 -6.03498e-008 
-41.1196 70.9144 -0.761718 91.5088 -85.3152 -173.212 -7.62939e-006 0 -7.10543e-015 -88.3142 9.45065 -88.3517 -18.6385 -9.591 -6.19413e-007 -53.3022 3.03668 -168.895 20.9743 6.25278e-013 -0.000670075 14.122 2.79862 -10.4797 20.3015 4.26326e-014 -6.21725e-015 16.7278 -4.41295 -27.6242 21.6394 -7.6294e-006 -9.53673e-007 6.28279 -9.72678 -52.4225 21.985 2.99623 0.64997 6.3818 -2.35422 4.09503 -20.8607 0.14412 -19.2925 -97.4654 -4.7357 179.743 34.2647 -3.8147e-006 3.8147e-006 -63.4725 4.87339e-006 9.43785e-006 20.4429 3.8147e-006 -1.90735e-006 65.6329 -6.90402e-007 1.00222e-006 16.5673 -3.8147e-006 -5.72205e-006 -4.56872 9.65147 -0.81669 9.18819 6.94795 -0.00140764 89.6762 1.50118 -0.0539959 1.01906 2.38418e-007 0 4.0389e-008 1.68874e-008 -5.56719e-007 -23.2917 -1.16785 14.8019 -110.002 15.0161 -173.987 34.2647 5.72205e-006 -3.8147e-006 -63.5557 3.41445e-006 1.0087e-005 20.4429 7.6294e-006 -1.90735e-006 65.6662 1.35267e-005 -6.94014e-006 16.5673 3.8147e-006 1.90735e-006 -15.721 -0.695464 0.416355 9.18783 6.9484 1.88519e-006 89.2064 -1.70934 0.0652258 1.01907 -6.21725e-014 3.8147e-006 -179.96 -0.000100015 9.92144e-005 39.3331 -0.0246582 0.000215828 -6.85642 -2.40696 -15.7245 34.2801 -15.593 -3.29801e-005 -9.25678 -8.56297 -6.42474 -16.0214 -13.7234 -6.57824 -178.554 -56.9221 73.8333 17.4439 1.52588e-005 3.8147e-006 32.4699 49.8381 -67.2918 30.6251 -7.15256e-007 -5.72204e-006 -52.6301 5.11388e-006 1.06614e-005 31.2039 1.90735e-006 5.72204e-006 155.744 77.5728 -150.717 22.1039 0.255845 -0.379022 -7.70186 15.0463 -33.7562 12.0552 1.42109e-014 1.90734e-006 179.96 -1.19039e-005 1.72646e-005 -14.6502 -15.5681 5.59219 -167.316 35.3786 -107.548 17.4439 -7.6294e-006 -1.14441e-005 29.6512 -33.3135 74.3306 30.6251 5.72205e-006 2.4869e-014 -56.9619 -9.82774e-006 -1.44724e-005 31.204 1.77636e-014 3.55271e-015 -112.509 -80.3227 -112.742 22.1039 0.255826 0.379054 -10.3682 -2.76745 27.6784 12.0552 -1.90735e-006 -5.32906e-014 -1.00569e-005 1.00714e-005 9.26153e-006 14.9375 -0.0103912 -0.000139713 -4.91392 20.2937 -22.43 14.3578 0.505471 -4.86858e-007 -27.0316 10.479 -4.86633 3.7699 -2.35627 12.3444 -165.045 18.2314 -76.123 3.76994 -2.35622 -12.3442 0.769461 42.6954 129.799 11.8396 10.8645 -1.08136e-008 -149.72 -3.53475 -177.697 9.73753 3.21678 -2.09938e-007 -7.45846 4.90788e-006 1.1484e-006 5.33457 0.880997 -0.296376 -8.10874 2.44071e-006 8.98211e-006 6.93466 -0.751786 4.90642e-008 -64.8888 61.0506 -48.727 13.0965 1.52588e-005 -5.96047e-007 -12.2391 1.11066 -4.05105 25.6158 7.6294e-006 -1.42109e-014 8.7571e-009 4.737e-008 -6.03498e-008 
